<?xml version="1.0" encoding="UTF-8" standalone="no"?>
<!DOCTYPE svg PUBLIC "-//W3C//DTD SVG 1.1//EN" "http://www.w3.org/Graphics/SVG/1.1/DTD/svg11.dtd">
<svg width="100%" height="100%" viewBox="0 0 500 500" version="1.1" xmlns="http://www.w3.org/2000/svg" xmlns:xlink="http://www.w3.org/1999/xlink" xml:space="preserve" xmlns:serif="http://www.serif.com/" style="fill-rule:evenodd;clip-rule:evenodd;stroke-linejoin:round;stroke-miterlimit:2;">
    <g transform="matrix(1,0,0,1,249.966,349.967)">
        <g transform="matrix(1.60264,0,0,1.60264,-782.685,-608.469)">
            <path d="M380.599,358.4C378.546,332.732 389.283,307.696 408.972,291.101L514.96,201.768C524.417,193.798 525.633,179.537 517.663,170.084L516.973,169.264C509.002,159.809 494.743,158.593 485.287,166.563L340.368,288.706C330.913,296.678 329.696,310.936 337.667,320.394L382.71,373.834C381.902,369.708 381.077,364.376 380.599,358.4Z" style="fill:white;fill-rule:nonzero;"/>
        </g>
        <g transform="matrix(1.60264,0,0,1.60264,-782.685,-608.469)">
            <path d="M639.117,314.182L592.185,258.5C598.286,270.114 600.545,305.357 580.918,329.313C579.581,331.529 577.872,333.597 575.759,335.377L461.133,431.989C451.678,439.96 450.461,454.219 458.432,463.674L459.812,465.313C467.782,474.768 482.041,475.986 491.497,468.014L636.416,345.87C645.872,337.899 647.088,323.641 639.117,314.182Z" style="fill:white;fill-rule:nonzero;"/>
        </g>
        <g transform="matrix(1.60264,0,0,1.60264,-782.685,-608.469)">
            <path d="M579.841,305.328C581.066,306.782 582.013,308.384 582.721,310.072C586.262,302.706 588.111,294.185 588.877,285.493C590.464,267.476 584.67,249.583 573.013,235.753L572.87,235.583C564.899,226.128 550.641,224.909 541.184,232.882L421.647,333.633C412.78,341.108 400.235,341.15 392.761,334.073C391.798,336.108 390.975,338.209 390.275,340.358C384.006,359.617 388.556,380.772 401.609,396.258L403.224,398.174C411.194,407.63 425.454,408.846 434.91,400.873L549.536,304.266C558.992,296.293 572.63,296.774 579.841,305.328Z" style="fill:white;fill-opacity:0.5;fill-rule:nonzero;"/>
        </g>
    </g>
</svg>
